<?xml version="1.0" encoding="utf-8"?>
<!-- Generator: Adobe Illustrator 22.0.1, SVG Export Plug-In . SVG Version: 6.00 Build 0)  -->
<svg version="1.1" id="Capa_1" xmlns="http://www.w3.org/2000/svg" xmlns:xlink="http://www.w3.org/1999/xlink" x="0px" y="0px"
	 viewBox="0 0 738 394" style="enable-background:new 0 0 738 394;" xml:space="preserve">
<style type="text/css">
	.st0{fill:#00BAFF;}
	.st1{fill:#1D1D1B;}
</style>
<g>
	<path class="st0" d="M295.6,61.5c7-0.3,13.1,0.7,18.2,2.9c5.1,2.2,9.1,5.4,12.1,9.4c3,4.1,4.6,8.9,4.9,14.5s-0.9,11.6-3.6,18.1
		c-4.9,12.1-9.4,24.2-14.1,36.2c-3.9,9.9-10.9,19.4-20.4,28.8c-5,4.9-10.1,8.9-15.3,11.9c-5.2,3-10.7,5.3-16.4,7.1
		c-5.7,1.8-11.5,3-17.4,3.7c-6,0.7-12.2,1.2-18.8,1.6c-3.6,0.2-7.2,0.4-10.8,0.6c-3.6,8.5-7.2,17-10.6,25.5
		c-3.5,8.5-7,17.1-10.5,25.6c-18.5,1.3-36.9,2.7-55.2,4.1c12.3-31,24.6-62.1,37-93c12.3-30.9,24.7-61.8,37.2-92.7
		C239.7,64.2,267.6,62.7,295.6,61.5L295.6,61.5z M266.8,115.4c1.2-3,1.3-5.5,0.1-7.6c-1.2-2.1-3.4-3-6.4-2.9
		c-3.3,0.2-6.6,0.3-9.8,0.5c-6.1,14.7-12.2,29.4-18.2,44.2c3.4-0.2,6.7-0.4,10.1-0.5c3-0.1,6-1.4,8.9-3.7s5.2-4.8,6.5-7.9
		C261,130.2,263.8,122.8,266.8,115.4z"/>
	<path class="st0" d="M510.4,59.9c22.6,0.7,45.2,1.4,67.8,2.6c22.6,1.1,45.3,2.6,67.9,4.1c-6.4,14.9-12.6,29.8-18.9,44.7
		c-27.2-1.8-54.4-3.3-81.5-4.6c-4.4,10.1-8.8,20.2-13.2,30.3c23.3,1,46.5,2.2,69.9,3.6c-6,14.4-12.1,28.8-18.1,43.2
		c-23.1-1.3-46.3-2.4-69.4-3.4c-4.4,10.4-8.8,20.9-13.1,31.3c-4.3,10.4-8.6,20.8-12.9,31.2c-18.1-0.5-36.2-1-54.3-1.4
		c12.5-30.2,25.2-60.5,37.8-90.8C485.1,120.6,497.7,90.3,510.4,59.9z"/>
	<path class="st0" d="M494.4,59.5c-10.4,24.8-20.6,49.7-30.9,74.4c-10.3,24.8-20.5,49.6-30.8,74.3c-1.2,2.8-2.5,5.4-3.9,7.9
		c-1.4,2.4-3,4.7-4.7,6.9c-2.5,3.3-5.5,6.3-9,8.9c-3.5,2.6-7.8,4.8-13,6.6c-5.1,1.8-11.2,3.2-18.4,4.1c-7.2,0.9-15.8,1.3-25.6,1.4
		c-11.1,0.1-20.2-0.7-27.6-2.6c-7.2-1.8-13-4.3-17.2-7.6s-7.1-7.1-8.7-11.6s-2-9.3-1.6-14.6c0.2-2.3,0.2-4.6,0.7-6.8
		c0.4-2.2,1-4.4,1.9-6.6c9.1-22.4,18.4-44.9,27.6-67.3s18.5-44.9,27.7-67.3c18.1-0.3,36.2-0.5,54.4-0.7
		c-8.6,21.6-17.2,43.1-25.7,64.6s-17,43.2-25.7,64.6c-1.2,3-1.4,5.5-0.3,7.7c1.2,2.1,3.2,3.2,6,3.2c3.1,0,6-1.1,8.9-3.3
		c3-2.1,5.2-4.7,6.4-7.7c8.9-21.5,17.9-43,26.8-64.5s17.9-43,26.9-64.6C457.2,58.9,475.8,59.2,494.4,59.5z"/>
</g>
<path class="st0" d="M20.2,254.9c13.8-56.5,60-96.3,89.2-115.8c0.1,0.3,0.1,0.4,0.1,0.5l4.3,26.8c0.9,5.4,1.7,10.9,2.6,16.3
	c0.4,2.5,2.9,3.7,4.9,2.4c0.9-0.6,1.1-1.5,1.4-2.4c4.2-19.5,8.4-39,12.6-58.5c0.3-1.4,0.8-2.3,2-3c4.3-2.6,8.4-5.5,12.7-8.1
	c3.6-2.2,6.6-5.1,9-8.6c1.1-1.7,2-3.5,3.1-5.2l0.5-2.3c-0.6-2.7-1.8-3.8-4.7-3.9c-5.7-0.1-11,1.2-15.9,4.2c-5,3.1-10,6.4-14.9,9.6
	c-0.6,0.4-1.2,0.5-1.9,0.3c-19.9-3.3-52.5-8.1-52.9-8.2c-1.6-0.2-2.8,0.5-3.3,1.9s-0.1,2.9,1.3,3.8c1.3,0.9,2.5,1.7,3.8,2.6
	c4.6,3,9.2,6.1,13.7,9.1c5.5,3.7,3.6,2.5,9.1,6.2c0.9,0.6,1.8,1.3,2.8,1.9C56.7,151.7,23.4,197,20.2,254.9z"/>
<path class="st0" d="M36.7,23.9L78,19.3c13.7,0,9.2,23.5,34,23.1c21.4-0.3,21.2-28,33.7-28C326.2,5.5,511.5,8.8,696,35.7
	c-182.9-14.2-367.4-13.8-548.6,0c-8.3,0-9.3,22.7-34.8,22.7C87,58.3,88,40.5,79.7,40.5l-33.3,3.3c-7.1,0.7-12,6.7-11.4,17.6
	l-1.6,234.9c0,11.1,4.4,14.2,13,14.2l31.6-5.9c8.4,0,9.2-27.1,34.7-27.1s24.7,22.3,33,22.3l82.7-4.8v20.6c0,0-57.4,4.8-82.7,7.2
	c-13.4-0.4-5.7-28.2-33.7-28.2s-20.1,33.5-34,33.1l-40.9,4.7c-15.2,0.2-22.5-11.4-21.6-29.8v-251C15.9,35.7,22,25.5,36.7,23.9z"/>
<path class="st1" d="M241.5,367.9h3.6c2.1,0,3.5,0.1,4.2,0.3c1,0.3,1.9,0.8,2.5,1.6c0.7,0.8,1,1.8,1,3s-0.3,2.2-1,3
	c-0.6,0.8-1.5,1.3-2.7,1.6c-0.8,0.2-2.4,0.3-4.6,0.3h-1.3v8.5h-1.8v-18.3H241.5z M243.3,369.7v6.2h3.1c1.2,0,2.2-0.1,2.7-0.3
	c0.6-0.2,1-0.6,1.4-1.1c0.3-0.5,0.5-1.1,0.5-1.7s-0.2-1.2-0.5-1.7s-0.8-0.9-1.3-1.1s-1.4-0.3-2.7-0.3H243.3L243.3,369.7z
	 M260.8,367.9h1.8v16.4h7v1.8h-8.8V367.9L260.8,367.9z M277,367.9h1.8v11c0,1.3,0,2.1,0.1,2.4c0.1,0.7,0.3,1.3,0.6,1.8
	c0.3,0.5,0.8,0.9,1.5,1.2c0.7,0.3,1.4,0.5,2.1,0.5c0.6,0,1.2-0.1,1.7-0.4s1-0.6,1.4-1.1s0.6-1,0.8-1.6c0.1-0.5,0.2-1.4,0.2-2.8v-11
	h1.8v11c0,1.6-0.2,2.9-0.5,3.9s-1,1.9-1.9,2.6c-1,0.7-2.1,1.1-3.5,1.1c-1.5,0-2.7-0.4-3.8-1.1c-1.1-0.7-1.8-1.6-2.1-2.8
	c-0.2-0.7-0.3-2-0.3-3.8L277,367.9L277,367.9z M296.1,382.7l1.5-0.9c1.1,2,2.3,3,3.8,3c0.6,0,1.2-0.1,1.7-0.4s0.9-0.7,1.2-1.1
	c0.3-0.5,0.4-1,0.4-1.5c0-0.6-0.2-1.2-0.6-1.8c-0.6-0.8-1.6-1.8-3.1-2.9s-2.5-2-2.8-2.5c-0.6-0.9-1-1.8-1-2.8c0-0.8,0.2-1.5,0.6-2.2
	s0.9-1.2,1.6-1.5c0.7-0.4,1.4-0.6,2.3-0.6s1.7,0.2,2.4,0.6c0.7,0.4,1.5,1.2,2.4,2.3l-1.5,1.1c-0.7-0.9-1.3-1.5-1.8-1.8
	s-1-0.4-1.6-0.4c-0.7,0-1.3,0.2-1.8,0.7c-0.5,0.4-0.7,1-0.7,1.6c0,0.4,0.1,0.8,0.2,1.1c0.2,0.4,0.5,0.8,0.9,1.2
	c0.2,0.2,1,0.8,2.4,1.8c1.6,1.2,2.7,2.2,3.3,3.1c0.6,0.9,0.9,1.8,0.9,2.7c0,1.3-0.5,2.5-1.5,3.4c-1,1-2.2,1.5-3.7,1.5
	c-1.1,0-2.1-0.3-3-0.9C297.6,385.1,296.8,384.1,296.1,382.7L296.1,382.7z M322,367.9h1.8v11c0,1.3,0,2.1,0.1,2.4
	c0.1,0.7,0.3,1.3,0.6,1.8c0.3,0.5,0.8,0.9,1.5,1.2c0.7,0.3,1.4,0.5,2.1,0.5c0.6,0,1.2-0.1,1.7-0.4s1-0.6,1.4-1.1s0.6-1,0.8-1.6
	c0.1-0.5,0.2-1.4,0.2-2.8v-11h1.8v11c0,1.6-0.2,2.9-0.5,3.9s-1,1.9-1.9,2.6c-1,0.7-2.1,1.1-3.5,1.1c-1.5,0-2.7-0.4-3.8-1.1
	c-1.1-0.7-1.8-1.6-2.1-2.8c-0.2-0.7-0.3-2-0.3-3.8L322,367.9L322,367.9z M342.9,367.9h1.8v16.4h7v1.8h-8.8V367.9L342.9,367.9z
	 M356.1,369.7v-1.8h10v1.8H362v16.4h-1.8v-16.4H356.1L356.1,369.7z M373.2,367.9h3.6c2,0,3.4,0.1,4.1,0.2c1.1,0.2,2,0.8,2.6,1.6
	c0.7,0.8,1,1.8,1,3c0,1-0.2,1.9-0.7,2.6c-0.5,0.8-1.1,1.3-2,1.7c-0.9,0.4-2.1,0.6-3.6,0.6l6.6,8.5h-2.2l-6.6-8.5h-1v8.5h-1.8V367.9
	L373.2,367.9z M375,369.7v6.2h3.1c1.2,0,2.1-0.1,2.7-0.3c0.6-0.2,1-0.6,1.4-1.1c0.3-0.5,0.5-1.1,0.5-1.7s-0.2-1.2-0.5-1.7
	s-0.8-0.9-1.3-1.1s-1.4-0.3-2.7-0.3H375L375,369.7z M400.3,367.9l8.5,18.2h-2l-2.8-6h-7.9l-2.8,6h-2l8.6-18.2H400.3L400.3,367.9z
	 M400.1,371.7l-3.1,6.6h6.2L400.1,371.7L400.1,371.7z M422.9,367.9h9v3.3h-5.6v3.3h5.6v3.3h-5.6v8.2h-3.4V367.9L422.9,367.9z
	 M439.7,367.9h3.7c2,0,3.4,0.2,4.3,0.5c0.9,0.4,1.5,1,2.1,1.8c0.5,0.8,0.8,1.8,0.8,3s-0.3,2.2-0.9,3s-1.4,1.4-2.6,1.8l4.3,8.1h-3.8
	l-4.1-7.7h-0.4v7.7h-3.4V367.9L439.7,367.9z M443.1,375.1h1.1c1.1,0,1.9-0.1,2.3-0.4s0.6-0.8,0.6-1.4c0-0.4-0.1-0.7-0.3-1
	c-0.2-0.3-0.5-0.5-0.8-0.6s-1-0.2-1.9-0.2h-1L443.1,375.1L443.1,375.1z M458.6,367.9h9.9v3.4H462v3.3h6.5v3.3H462v4.8h6.5v3.4h-9.9
	V367.9L458.6,367.9z M476.2,367.9h9.9v3.4h-6.5v3.3h6.5v3.3h-6.5v4.8h6.5v3.4h-9.9V367.9L476.2,367.9z M493.8,367.9h3.4v14.9h5.1
	v3.3h-8.5V367.9L493.8,367.9z M515,367.9h3.5l7,18.2h-3.6l-1.4-3.8H513l-1.5,3.8H508L515,367.9L515,367.9z M516.7,372.8l-2.5,6.3
	h4.9L516.7,372.8L516.7,372.8z M532.6,367.9h3.3l7.8,12v-12h3.4v18.2h-3.3l-7.8-11.9v11.9h-3.4V367.9L532.6,367.9z M572.5,371.1
	l-2.4,2.3c-1.7-1.7-3.5-2.6-5.6-2.6c-1.7,0-3.2,0.6-4.4,1.8c-1.2,1.2-1.8,2.6-1.8,4.4c0,1.2,0.3,2.3,0.8,3.2
	c0.5,0.9,1.3,1.7,2.2,2.2c1,0.5,2,0.8,3.2,0.8c1,0,1.9-0.2,2.8-0.6c0.8-0.4,1.8-1.1,2.7-2l2.4,2.5c-1.3,1.3-2.6,2.2-3.8,2.7
	s-2.6,0.8-4.1,0.8c-2.8,0-5.1-0.9-7-2.7c-1.8-1.8-2.7-4.1-2.7-6.9c0-1.8,0.4-3.4,1.2-4.8s2-2.5,3.5-3.4s3.2-1.3,4.9-1.3
	c1.5,0,2.9,0.3,4.3,1C570.3,369.1,571.5,370,572.5,371.1L572.5,371.1z M580,367.9h9.9v3.4h-6.5v3.3h6.5v3.3h-6.5v4.8h6.5v3.4H580
	V367.9z"/>
<path class="st1" d="M714.9,51.2V40.9h-3.3v-2.6h9.3v2.6h-3.2v10.4h-2.8V51.2z M730.4,51.2V44l-2.8,7.2l-3.1-7.5v7.4H722V38.3h3.1
	l2.5,6.7l2.4-6.7h3v13L730.4,51.2L730.4,51.2z"/>
<path class="st1" d="M264,358v-98.6h29.7V237h-82.3v22.4h29.7V358H264L264,358z M308.8,358h-21.4v-77.9h21.4v6.3
	c6.1-6.1,15.3-8.2,21.4-8.2h5.1l-5.1,21.2H327c-10,0-18.2,7.8-18.2,17.2V358L308.8,358z M370,359.5c6.1,0,13.1-0.8,19.2-6.8l0.9-0.9
	v6.1h20.6V280h-20.6v6.8l-0.9-0.7c-5.6-5.1-12.1-7.6-19.2-7.6c-10.9,0-21.1,4.1-28.7,11.7c-7.6,7.8-11.9,18-11.9,28.7
	s4.2,20.9,11.9,28.7C349.1,355.4,359.3,359.5,370,359.5L370,359.5z M370,298.5c10.9,0,20.1,9.5,20.1,20.6c0,11.2-9.2,20.6-20.1,20.6
	s-20.1-9.3-20.1-20.6C350,308,359.2,298.5,370,298.5L370,298.5z M461.7,358l31.6-77.9h-22.1l-18.9,46.6l-19-46.6h-21.9L443,358
	H461.7L461.7,358z M526.2,359.9H526c-4.9,0-10-1.2-14.8-3.4c-4.4-1.9-8.5-4.9-12.2-8.8c-5.9-6.5-9.5-15-10.4-23.8
	c-0.2-1.5-0.3-3.1-0.3-4.8c0-3.4,0.5-7,1.4-10.5c1.5-6.8,4.8-13.1,9.3-17.8c3.4-3.7,7.3-6.6,12.2-9c4.6-2.2,9.7-3.2,15-3.2
	c5.4,0,10.4,1,15,3.2c5.1,2.4,9.2,5.4,12.2,9c4.4,4.8,7.8,10.9,9.5,17.8c0.9,3.2,1.2,6.6,1.2,10.5c0,1.4,0,2.7,0,3.9H507l0.2,1.2
	c2.2,10.5,10.2,18.2,19,18.2h0.2c4.9-0.3,10.4-3.4,13.6-6.1l1.9-1.5L556,347l-2.5,2.2c-1.9,1.7-4.2,3.7-6.8,5.1h-0.2
	C540.3,357.8,533.7,359.7,526.2,359.9L526.2,359.9z M526.2,296.1c-6.6,0-13.3,4.6-16.8,11.7l-0.7,1.4h35.2l-0.7-1.4
	C539.3,300.5,532.8,296.1,526.2,296.1L526.2,296.1z M589.1,358V233.2H567V358H589.1z"/>
<path class="st0" d="M599.2,301.2c0,0,31,8.2,49.2,11.8c-18.2-1.2-49-3.2-49-3.2L599.2,301.2z"/>
</svg>
